<svg xmlns="http://www.w3.org/2000/svg" viewBox="0 0 40 40" fill="none">
  <circle cx="20" cy="20" r="18" fill="#7c3aed" />
  <path d="M14 10c3 0 4 3 1 5s-3 5 0 7 4 3 1 5-3 5 0 7" stroke="white" stroke-width="2.5" stroke-linecap="round" fill="none"/>
  <path d="M21 8c3 0 4 3 1 5s-3 5 0 7 4 3 1 5-3 5 0 7" stroke="white" stroke-width="2.5" stroke-linecap="round" fill="none"/>
  <path d="M28 10c3 0 4 3 1 5s-3 5 0 7 4 3 1 5-3 5 0 7" stroke="white" stroke-width="2.5" stroke-linecap="round" fill="none"/>
</svg>